<svg width="55" height="59" viewBox="0 0 55 59" fill="none" xmlns="http://www.w3.org/2000/svg">
<path d="M55 45.96L11.1611 45.96C5.63828 45.96 1.16113 41.4828 1.16113 35.96L1.16114 9.99996C1.16114 4.47712 5.63829 -4.24623e-05 11.1611 -4.19795e-05L45 -3.90212e-05C50.5229 -3.85384e-05 55 4.47712 55 9.99996L55 45.96Z" fill="#C2CAE4"/>
<path d="M11.1719 57.2412H43.8281C44.9673 57.2399 46.0595 56.7868 46.8651 55.9813C47.6706 55.1757 48.1237 54.0835 48.125 52.9443V16.8506C48.125 16.7377 48.1028 16.626 48.0596 16.5217C48.0164 16.4174 47.9531 16.3227 47.8733 16.2429L37.5608 5.9304C37.481 5.8506 37.3863 5.7873 37.282 5.74412C37.1777 5.70093 37.066 5.67871 36.9531 5.67871H11.1719C10.0327 5.67999 8.94048 6.13311 8.13494 6.93865C7.3294 7.74419 6.87628 8.83638 6.875 9.97559V52.9443C6.87628 54.0835 7.3294 55.1757 8.13494 55.9813C8.94048 56.7868 10.0327 57.2399 11.1719 57.2412ZM37.8125 8.61272L45.191 15.9912H40.3906C39.7071 15.9904 39.0518 15.7186 38.5685 15.2352C38.0851 14.7519 37.8133 14.0966 37.8125 13.4131V8.61272ZM8.59375 9.97559C8.59455 9.29207 8.86642 8.63678 9.34974 8.15346C9.83306 7.67014 10.4884 7.39826 11.1719 7.39746H36.0938V13.4131C36.095 14.5523 36.5481 15.6445 37.3537 16.45C38.1592 17.2556 39.2514 17.7087 40.3906 17.71H46.4062V52.9443C46.4055 53.6279 46.1336 54.2831 45.6503 54.7665C45.1669 55.2498 44.5116 55.5217 43.8281 55.5225H11.1719C10.4884 55.5217 9.83306 55.2498 9.34974 54.7665C8.86642 54.2831 8.59455 53.6279 8.59375 52.9443V9.97559Z" fill="#162954"/>
<path d="M20.625 22.0068C20.625 22.2348 20.7155 22.4533 20.8767 22.6145C21.0379 22.7757 21.2565 22.8662 21.4844 22.8662H42.1094C42.3373 22.8662 42.5559 22.7757 42.717 22.6145C42.8782 22.4533 42.9688 22.2348 42.9688 22.0068C42.9688 21.7789 42.8782 21.5603 42.717 21.3992C42.5559 21.238 42.3373 21.1475 42.1094 21.1475H21.4844C21.2565 21.1475 21.0379 21.238 20.8767 21.3992C20.7155 21.5603 20.625 21.7789 20.625 22.0068Z" fill="#162954"/>
<path d="M12.8906 28.0225H30.0781C30.306 28.0225 30.5246 27.9319 30.6858 27.7708C30.847 27.6096 30.9375 27.391 30.9375 27.1631C30.9375 26.9352 30.847 26.7166 30.6858 26.5554C30.5246 26.3943 30.306 26.3037 30.0781 26.3037H12.8906C12.6627 26.3037 12.4441 26.3943 12.283 26.5554C12.1218 26.7166 12.0312 26.9352 12.0312 27.1631C12.0312 27.391 12.1218 27.6096 12.283 27.7708C12.4441 27.9319 12.6627 28.0225 12.8906 28.0225Z" fill="#162954"/>
<path d="M42.1094 31.46H26.6406C26.4127 31.46 26.1941 31.5505 26.033 31.7117C25.8718 31.8728 25.7812 32.0914 25.7812 32.3193C25.7812 32.5473 25.8718 32.7658 26.033 32.927C26.1941 33.0882 26.4127 33.1787 26.6406 33.1787H42.1094C42.3373 33.1787 42.5559 33.0882 42.717 32.927C42.8782 32.7658 42.9688 32.5473 42.9688 32.3193C42.9688 32.0914 42.8782 31.8728 42.717 31.7117C42.5559 31.5505 42.3373 31.46 42.1094 31.46Z" fill="#162954"/>
<path d="M12.8906 38.335H33.5156C33.7435 38.335 33.9621 38.2444 34.1233 38.0833C34.2845 37.9221 34.375 37.7035 34.375 37.4756C34.375 37.2477 34.2845 37.0291 34.1233 36.8679C33.9621 36.7068 33.7435 36.6162 33.5156 36.6162H12.8906C12.6627 36.6162 12.4441 36.7068 12.283 36.8679C12.1218 37.0291 12.0312 37.2477 12.0312 37.4756C12.0312 37.7035 12.1218 37.9221 12.283 38.0833C12.4441 38.2444 12.6627 38.335 12.8906 38.335Z" fill="#162954"/>
<path d="M12.8906 22.8662H18.0469C18.2748 22.8662 18.4934 22.7757 18.6545 22.6145C18.8157 22.4533 18.9062 22.2348 18.9062 22.0068C18.9062 21.7789 18.8157 21.5603 18.6545 21.3992C18.4934 21.238 18.2748 21.1475 18.0469 21.1475H12.8906C12.6627 21.1475 12.4441 21.238 12.283 21.3992C12.1218 21.5603 12.0312 21.7789 12.0312 22.0068C12.0312 22.2348 12.1218 22.4533 12.283 22.6145C12.4441 22.7757 12.6627 22.8662 12.8906 22.8662Z" fill="#162954"/>
<path d="M42.1094 26.3037H33.5156C33.2877 26.3037 33.0691 26.3943 32.908 26.5554C32.7468 26.7166 32.6562 26.9352 32.6562 27.1631C32.6562 27.391 32.7468 27.6096 32.908 27.7708C33.0691 27.9319 33.2877 28.0225 33.5156 28.0225H42.1094C42.3373 28.0225 42.5559 27.9319 42.717 27.7708C42.8782 27.6096 42.9688 27.391 42.9688 27.1631C42.9688 26.9352 42.8782 26.7166 42.717 26.5554C42.5559 26.3943 42.3373 26.3037 42.1094 26.3037Z" fill="#162954"/>
<path d="M12.8906 33.1787H23.2031C23.431 33.1787 23.6496 33.0882 23.8108 32.927C23.972 32.7658 24.0625 32.5473 24.0625 32.3193C24.0625 32.0914 23.972 31.8728 23.8108 31.7117C23.6496 31.5505 23.431 31.46 23.2031 31.46H12.8906C12.6627 31.46 12.4441 31.5505 12.283 31.7117C12.1218 31.8728 12.0312 32.0914 12.0312 32.3193C12.0312 32.5473 12.1218 32.7658 12.283 32.927C12.4441 33.0882 12.6627 33.1787 12.8906 33.1787Z" fill="#162954"/>
<path d="M42.1094 36.6162H36.9531C36.7252 36.6162 36.5066 36.7068 36.3455 36.8679C36.1843 37.0291 36.0938 37.2477 36.0938 37.4756C36.0938 37.7035 36.1843 37.9221 36.3455 38.0833C36.5066 38.2444 36.7252 38.335 36.9531 38.335H42.1094C42.3373 38.335 42.5559 38.2444 42.717 38.0833C42.8782 37.9221 42.9688 37.7035 42.9688 37.4756C42.9688 37.2477 42.8782 37.0291 42.717 36.8679C42.5559 36.7068 42.3373 36.6162 42.1094 36.6162Z" fill="#162954"/>
<path d="M35.2344 46.9287H26.6406C26.4127 46.9287 26.1941 47.0193 26.033 47.1804C25.8718 47.3416 25.7812 47.5602 25.7812 47.7881C25.7812 48.016 25.8718 48.2346 26.033 48.3958C26.1941 48.5569 26.4127 48.6475 26.6406 48.6475H35.2344C35.4623 48.6475 35.6809 48.5569 35.842 48.3958C36.0032 48.2346 36.0938 48.016 36.0938 47.7881C36.0938 47.5602 36.0032 47.3416 35.842 47.1804C35.6809 47.0193 35.4623 46.9287 35.2344 46.9287Z" fill="#162954"/>
<path d="M12.8906 48.6475H23.2031C23.431 48.6475 23.6496 48.5569 23.8108 48.3958C23.972 48.2346 24.0625 48.016 24.0625 47.7881C24.0625 47.5602 23.972 47.3416 23.8108 47.1804C23.6496 47.0193 23.431 46.9287 23.2031 46.9287H12.8906C12.6627 46.9287 12.4441 47.0193 12.283 47.1804C12.1218 47.3416 12.0312 47.5602 12.0312 47.7881C12.0312 48.016 12.1218 48.2346 12.283 48.3958C12.4441 48.5569 12.6627 48.6475 12.8906 48.6475Z" fill="#162954"/>
<path d="M12.8906 43.4912H19.7656C19.9935 43.4912 20.2121 43.4007 20.3733 43.2395C20.5345 43.0783 20.625 42.8598 20.625 42.6318C20.625 42.4039 20.5345 42.1853 20.3733 42.0242C20.2121 41.863 19.9935 41.7725 19.7656 41.7725H12.8906C12.6627 41.7725 12.4441 41.863 12.283 42.0242C12.1218 42.1853 12.0312 42.4039 12.0312 42.6318C12.0312 42.8598 12.1218 43.0783 12.283 43.2395C12.4441 43.4007 12.6627 43.4912 12.8906 43.4912Z" fill="#162954"/>
<path d="M12.8906 17.71H23.2031C23.431 17.71 23.6496 17.6194 23.8108 17.4583C23.972 17.2971 24.0625 17.0785 24.0625 16.8506C24.0625 16.6227 23.972 16.4041 23.8108 16.2429C23.6496 16.0818 23.431 15.9912 23.2031 15.9912H12.8906C12.6627 15.9912 12.4441 16.0818 12.283 16.2429C12.1218 16.4041 12.0312 16.6227 12.0312 16.8506C12.0312 17.0785 12.1218 17.2971 12.283 17.4583C12.4441 17.6194 12.6627 17.71 12.8906 17.71Z" fill="#162954"/>
<path d="M32.6562 42.6318C32.6562 42.4039 32.5657 42.1853 32.4045 42.0242C32.2434 41.863 32.0248 41.7725 31.7969 41.7725H23.2031C22.9752 41.7725 22.7566 41.863 22.5955 42.0242C22.4343 42.1853 22.3438 42.4039 22.3438 42.6318C22.3438 42.8598 22.4343 43.0783 22.5955 43.2395C22.7566 43.4007 22.9752 43.4912 23.2031 43.4912H31.7969C32.0248 43.4912 32.2434 43.4007 32.4045 43.2395C32.5657 43.0783 32.6562 42.8598 32.6562 42.6318Z" fill="#162954"/>
<path d="M42.1094 41.7725H35.2344C35.0065 41.7725 34.7879 41.863 34.6267 42.0242C34.4655 42.1853 34.375 42.4039 34.375 42.6318C34.375 42.8598 34.4655 43.0783 34.6267 43.2395C34.7879 43.4007 35.0065 43.4912 35.2344 43.4912H42.1094C42.3373 43.4912 42.5559 43.4007 42.717 43.2395C42.8782 43.0783 42.9688 42.8598 42.9688 42.6318C42.9688 42.4039 42.8782 42.1853 42.717 42.0242C42.5559 41.863 42.3373 41.7725 42.1094 41.7725Z" fill="#162954"/>
<path d="M42.1094 46.9287H38.6719C38.444 46.9287 38.2254 47.0193 38.0642 47.1804C37.903 47.3416 37.8125 47.5602 37.8125 47.7881C37.8125 48.016 37.903 48.2346 38.0642 48.3958C38.2254 48.5569 38.444 48.6475 38.6719 48.6475H42.1094C42.3373 48.6475 42.5559 48.5569 42.717 48.3958C42.8782 48.2346 42.9688 48.016 42.9688 47.7881C42.9688 47.5602 42.8782 47.3416 42.717 47.1804C42.5559 47.0193 42.3373 46.9287 42.1094 46.9287Z" fill="#162954"/>
</svg>
